<?xml version="1.0" encoding="UTF-8" standalone="no"?><svg xmlns="http://www.w3.org/2000/svg" xmlns:xlink="http://www.w3.org/1999/xlink" clip-rule="evenodd" stroke-miterlimit="10" viewBox="0 0 1024 768"><desc>SVG generated by Keynote</desc><defs><pattern id="patternP1" patternUnits="userSpaceOnUse" width="600" height="600" viewBox="0 0 600 600"><image xlink:href="../../747A2862-51A0-448D-B118-68AFCB54B581/assets/54AAA609FA4289ED6813ACB24DD77507.png" width="600.00" height="600.00"></image></pattern></defs><g transform="matrix(1.00, 0.00, -0.00, -1.00, 0.0, 768.0)"><path d="M 0.0 768.0 L 1024.0 768.0 L 1024.0 0.0 L 0.0 0.0 Z M 0.0 768.0 " fill="#FEFFFF"></path><g><clipPath id="clip0x6000034b3fe0"><path d="M -7.0 86.0 L 684.0 86.0 L 684.0 18.0 L -7.0 18.0 Z M -6.5 86.3 "></path></clipPath><g clip-path="url(#clip0x6000034b3fe0)"><g><clipPath id="clip0x6000034b3d40"><path d="M -7.5 16.9 L 684.8 16.9 L 684.8 87.3 L -7.5 87.3 Z M -7.5 16.9 "></path></clipPath><g clip-path="url(#clip0x6000034b3d40)"><path d="M 0.0 18.0 L 684.0 18.0 L 684.0 86.0 L 0.0 86.0 Z M 0.0 18.0 " fill="url(#patternP1)"></path></g></g></g></g><g><clipPath id="clip0x6000034b4940"><path d="M 684.0 16.9 L 1029.5 16.9 L 1029.5 87.3 L 684.0 87.3 Z M 684.0 16.9 "></path></clipPath><g clip-path="url(#clip0x6000034b4940)"><path d="M 685.0 86.0 L 1028.0 86.0 L 1028.0 18.0 L 685.0 18.0 Z M 685.0 86.3 " fill="#0B5C18"></path></g></g><g><clipPath id="clip0x6000034b4b80"><path d="M 703.7 8.0 L 1009.8 8.0 L 1009.8 98.0 L 703.7 98.0 Z M 703.7 8.0 "></path></clipPath><g clip-path="url(#clip0x6000034b4b80)"><text xml:space="preserve" font-family="Helvetica-Light,Helvetica" font-size="20.0" fill="#FEFFFF" transform="matrix(1.00, 0.00, -0.00, -1.00, 803.4, 49.6)">j</text><text xml:space="preserve" font-family="Helvetica-Light,Helvetica" font-size="20.0" fill="#FEFFFF" transform="matrix(1.00, 0.00, -0.00, -1.00, 807.8, 49.6)">e</text><text xml:space="preserve" font-family="Helvetica-Light,Helvetica" font-size="20.0" fill="#FEFFFF" transform="matrix(1.00, 0.00, -0.00, -1.00, 818.9, 49.6)">s</text><text xml:space="preserve" font-family="Helvetica-Light,Helvetica" font-size="20.0" fill="#FEFFFF" transform="matrix(1.00, 0.00, -0.00, -1.00, 828.9, 49.6)">u</text><text xml:space="preserve" font-family="Helvetica-Light,Helvetica" font-size="20.0" fill="#FEFFFF" transform="matrix(1.00, 0.00, -0.00, -1.00, 840.1, 49.6)">s</text><text xml:space="preserve" font-family="Helvetica-Light,Helvetica" font-size="20.0" fill="#FEFFFF" transform="matrix(1.00, 0.00, -0.00, -1.00, 850.1, 49.6)">l</text><text xml:space="preserve" font-family="Helvetica-Light,Helvetica" font-size="20.0" fill="#FEFFFF" transform="matrix(1.00, 0.00, -0.00, -1.00, 854.5, 49.6)">c</text><text xml:space="preserve" font-family="Helvetica-Light,Helvetica" font-size="20.0" fill="#FEFFFF" transform="matrix(1.00, 0.00, -0.00, -1.00, 865.6, 49.6)">.</text><text xml:space="preserve" font-family="Helvetica-Light,Helvetica" font-size="20.0" fill="#FEFFFF" transform="matrix(1.00, 0.00, -0.00, -1.00, 871.2, 49.6)">c</text><text xml:space="preserve" font-family="Helvetica-Light,Helvetica" font-size="20.0" fill="#FEFFFF" transform="matrix(1.00, 0.00, -0.00, -1.00, 882.3, 49.6)">o</text><text xml:space="preserve" font-family="Helvetica-Light,Helvetica" font-size="20.0" fill="#FEFFFF" transform="matrix(1.00, 0.00, -0.00, -1.00, 893.4, 49.6)">m</text><path d="M 98.7 48.9 L 205.4 48.9 " fill="none" stroke="#FEFFFF" stroke-width="1.00" transform="matrix(1.00, 0.00, 0.00, -1.00, 704.7, 97.0)"></path></g></g><g><clipPath id="clip0x6000034b5240"><path d="M -26.8 3.0 L 279.3 3.0 L 279.3 93.0 L -26.8 93.0 Z M -26.8 3.0 "></path></clipPath><g clip-path="url(#clip0x6000034b5240)"><text xml:space="preserve" font-family="Helvetica-Light,Helvetica" font-size="20.0" fill="#FEFFFF" transform="matrix(1.00, 0.00, -0.00, -1.00, 70.1, 44.6)">T</text><text xml:space="preserve" font-family="Helvetica-Light,Helvetica" font-size="20.0" fill="#FEFFFF" transform="matrix(1.00, 0.00, -0.00, -1.00, 81.3, 44.6)">D</text><text xml:space="preserve" font-family="Helvetica-Light,Helvetica" font-size="20.0" fill="#FEFFFF" transform="matrix(1.00, 0.00, -0.00, -1.00, 95.7, 44.6)">D</text><text xml:space="preserve" font-family="Helvetica-Light,Helvetica" font-size="20.0" fill="#FEFFFF" transform="matrix(1.00, 0.00, -0.00, -1.00, 110.1, 44.6)"> </text><text xml:space="preserve" font-family="Helvetica-Light,Helvetica" font-size="20.0" fill="#FEFFFF" transform="matrix(1.00, 0.00, -0.00, -1.00, 115.7, 44.6)">e</text><text xml:space="preserve" font-family="Helvetica-Light,Helvetica" font-size="20.0" fill="#FEFFFF" transform="matrix(1.00, 0.00, -0.00, -1.00, 126.8, 44.6)">n</text><text xml:space="preserve" font-family="Helvetica-Light,Helvetica" font-size="20.0" fill="#FEFFFF" transform="matrix(1.00, 0.00, -0.00, -1.00, 137.9, 44.6)"> </text><text xml:space="preserve" font-family="Helvetica-Light,Helvetica" font-size="20.0" fill="#FEFFFF" transform="matrix(1.00, 0.00, -0.00, -1.00, 143.5, 44.6)">P</text><text xml:space="preserve" font-family="Helvetica-Light,Helvetica" font-size="20.0" fill="#FEFFFF" transform="matrix(1.00, 0.00, -0.00, -1.00, 155.7, 44.6)">H</text><text xml:space="preserve" font-family="Helvetica-Light,Helvetica" font-size="20.0" fill="#FEFFFF" transform="matrix(1.00, 0.00, -0.00, -1.00, 170.2, 44.6)">P</text></g></g><image xlink:href="B19841703E6CC6FD37BB531868382AB4.png" width="248.00" height="342.00" transform="matrix(1.00, 0.00, -0.00, -1.00, 120.7, 538.7)" opacity="0.50"></image><path d="M 124.0 538.0 L 366.0 538.0 L 366.0 201.0 L 124.0 201.0 Z M 123.7 537.7 " fill="#DCDDE0"></path><text xml:space="preserve" font-family="Helvetica-Light,Helvetica" font-size="80.0" fill="#00872A" transform="matrix(1.00, 0.00, -0.00, -1.00, 272.0, 618.4)">H</text><text xml:space="preserve" font-family="Helvetica-Light,Helvetica" font-size="80.0" fill="#00872A" transform="matrix(1.00, 0.00, -0.00, -1.00, 329.7, 618.4)">e</text><text xml:space="preserve" font-family="Helvetica-Light,Helvetica" font-size="80.0" fill="#00872A" transform="matrix(1.00, 0.00, -0.00, -1.00, 374.2, 618.4)">r</text><text xml:space="preserve" font-family="Helvetica-Light,Helvetica" font-size="80.0" fill="#00872A" transform="matrix(1.00, 0.00, -0.00, -1.00, 400.8, 618.4)">r</text><text xml:space="preserve" font-family="Helvetica-Light,Helvetica" font-size="80.0" fill="#00872A" transform="matrix(1.00, 0.00, -0.00, -1.00, 427.5, 618.4)">a</text><text xml:space="preserve" font-family="Helvetica-Light,Helvetica" font-size="80.0" fill="#00872A" transform="matrix(1.00, 0.00, -0.00, -1.00, 472.0, 618.4)">m</text><text xml:space="preserve" font-family="Helvetica-Light,Helvetica" font-size="80.0" fill="#00872A" transform="matrix(1.00, 0.00, -0.00, -1.00, 538.6, 618.4)">i</text><text xml:space="preserve" font-family="Helvetica-Light,Helvetica" font-size="80.0" fill="#00872A" transform="matrix(1.00, 0.00, -0.00, -1.00, 556.4, 618.4)">e</text><text xml:space="preserve" font-family="Helvetica-Light,Helvetica" font-size="80.0" fill="#00872A" transform="matrix(1.00, 0.00, -0.00, -1.00, 600.8, 618.4)">n</text><text xml:space="preserve" font-family="Helvetica-Light,Helvetica" font-size="80.0" fill="#00872A" transform="matrix(1.00, 0.00, -0.00, -1.00, 645.3, 618.4)">t</text><text xml:space="preserve" font-family="Helvetica-Light,Helvetica" font-size="80.0" fill="#00872A" transform="matrix(1.00, 0.00, -0.00, -1.00, 667.6, 618.4)">a</text><text xml:space="preserve" font-family="Helvetica-Light,Helvetica" font-size="80.0" fill="#00872A" transform="matrix(1.00, 0.00, -0.00, -1.00, 712.0, 618.4)">s</text><text xml:space="preserve" font-family="Helvetica-Light,Helvetica" font-size="18.0" fill="#000000" transform="matrix(1.00, 0.00, -0.00, -1.00, 163.1, 469.1)">•</text><text xml:space="preserve" font-family="Helvetica-Light,Helvetica" font-size="24.0" fill="#000000" transform="matrix(1.00, 0.00, -0.00, -1.00, 198.1, 467.0)">I</text><text xml:space="preserve" font-family="Helvetica-Light,Helvetica" font-size="24.0" fill="#000000" transform="matrix(1.00, 0.00, -0.00, -1.00, 204.7, 467.0)">D</text><text xml:space="preserve" font-family="Helvetica-Light,Helvetica" font-size="24.0" fill="#000000" transform="matrix(1.00, 0.00, -0.00, -1.00, 222.1, 467.0)">E</text><text xml:space="preserve" font-family="Helvetica-Light,Helvetica" font-size="24.0" fill="#000000" transform="matrix(1.00, 0.00, -0.00, -1.00, 236.7, 467.0)"> </text><text xml:space="preserve" font-family="Helvetica-Light,Helvetica" font-size="18.0" fill="#000000" transform="matrix(1.00, 0.00, -0.00, -1.00, 163.1, 398.1)">•</text><text xml:space="preserve" font-family="Helvetica-Light,Helvetica" font-size="24.0" fill="#000000" transform="matrix(1.00, 0.00, -0.00, -1.00, 198.1, 396.0)">G</text><text xml:space="preserve" font-family="Helvetica-Light,Helvetica" font-size="24.0" fill="#000000" transform="matrix(1.00, 0.00, -0.00, -1.00, 216.7, 396.0)">i</text><text xml:space="preserve" font-family="Helvetica-Light,Helvetica" font-size="24.0" fill="#000000" transform="matrix(1.00, 0.00, -0.00, -1.00, 222.1, 396.0)">t</text><text xml:space="preserve" font-family="Helvetica-Light,Helvetica" font-size="24.0" fill="#000000" transform="matrix(1.00, 0.00, -0.00, -1.00, 228.7, 396.0)"> </text><text xml:space="preserve" font-family="Helvetica-Light,Helvetica" font-size="18.0" fill="#000000" transform="matrix(1.00, 0.00, -0.00, -1.00, 163.1, 327.1)">•</text><text xml:space="preserve" font-family="Helvetica-Light,Helvetica" font-size="24.0" fill="#000000" transform="matrix(1.00, 0.00, -0.00, -1.00, 198.1, 325.0)">T</text><text xml:space="preserve" font-family="Helvetica-Light,Helvetica" font-size="24.0" fill="#000000" transform="matrix(1.00, 0.00, -0.00, -1.00, 208.7, 325.0)">e</text><text xml:space="preserve" font-family="Helvetica-Light,Helvetica" font-size="24.0" fill="#000000" transform="matrix(1.00, 0.00, -0.00, -1.00, 222.1, 325.0)">s</text><text xml:space="preserve" font-family="Helvetica-Light,Helvetica" font-size="24.0" fill="#000000" transform="matrix(1.00, 0.00, -0.00, -1.00, 234.1, 325.0)">t</text><text xml:space="preserve" font-family="Helvetica-Light,Helvetica" font-size="24.0" fill="#000000" transform="matrix(1.00, 0.00, -0.00, -1.00, 240.8, 325.0)">s</text><text xml:space="preserve" font-family="Helvetica-Light,Helvetica" font-size="24.0" fill="#000000" transform="matrix(1.00, 0.00, -0.00, -1.00, 252.8, 325.0)"> </text><text xml:space="preserve" font-family="Helvetica-Bold,Helvetica" font-weight="bold" font-size="18.0" fill="#000000" transform="matrix(1.00, 0.00, -0.00, -1.00, 163.1, 256.1)">•</text><text xml:space="preserve" font-family="Helvetica-Bold,Helvetica" font-weight="bold" font-size="24.0" fill="#000000" transform="matrix(1.00, 0.00, -0.00, -1.00, 198.1, 254.0)">P</text><text xml:space="preserve" font-family="Helvetica-Bold,Helvetica" font-weight="bold" font-size="24.0" fill="#000000" transform="matrix(1.00, 0.00, -0.00, -1.00, 214.1, 254.0)">a</text><text xml:space="preserve" font-family="Helvetica-Bold,Helvetica" font-weight="bold" font-size="24.0" fill="#000000" transform="matrix(1.00, 0.00, -0.00, -1.00, 227.4, 254.0)">c</text><text xml:space="preserve" font-family="Helvetica-Bold,Helvetica" font-weight="bold" font-size="24.0" fill="#000000" transform="matrix(1.00, 0.00, -0.00, -1.00, 240.8, 254.0)">i</text><text xml:space="preserve" font-family="Helvetica-Bold,Helvetica" font-weight="bold" font-size="24.0" fill="#000000" transform="matrix(1.00, 0.00, -0.00, -1.00, 247.4, 254.0)">e</text><text xml:space="preserve" font-family="Helvetica-Bold,Helvetica" font-weight="bold" font-size="24.0" fill="#000000" transform="matrix(1.00, 0.00, -0.00, -1.00, 260.8, 254.0)">n</text><text xml:space="preserve" font-family="Helvetica-Bold,Helvetica" font-weight="bold" font-size="24.0" fill="#000000" transform="matrix(1.00, 0.00, -0.00, -1.00, 275.4, 254.0)">c</text><text xml:space="preserve" font-family="Helvetica-Bold,Helvetica" font-weight="bold" font-size="24.0" fill="#000000" transform="matrix(1.00, 0.00, -0.00, -1.00, 288.8, 254.0)">i</text><text xml:space="preserve" font-family="Helvetica-Bold,Helvetica" font-weight="bold" font-size="24.0" fill="#000000" transform="matrix(1.00, 0.00, -0.00, -1.00, 295.5, 254.0)">a</text><image xlink:href="E0E5680F1FBD25C730B82647775C4046.png" width="158.00" height="158.00" transform="matrix(1.00, 0.00, -0.00, -1.00, 522.3, 329.5)" opacity="0.50"></image><g><clipPath id="clip0x6000034b5ba0"><path d="M 525.0 325.0 L 675.0 325.0 L 675.0 175.0 L 525.0 175.0 Z M 525.3 325.5 "></path></clipPath><g clip-path="url(#clip0x6000034b5ba0)"><image xlink:href="../../747A2862-51A0-448D-B118-68AFCB54B581/assets/54AAA609FA4289ED6813ACB24DD77507.png" width="600.00" height="600.00" transform="matrix(0.50, 0.00, -0.00, -0.50, 525.0, 325.0)"></image></g></g><g><clipPath id="clip0x6000034b5c00"><path d="M 523.3 175.5 L 677.3 175.5 L 677.3 325.5 L 523.3 325.5 Z M 523.3 175.5 "></path></clipPath><g clip-path="url(#clip0x6000034b5c00)"><text xml:space="preserve" font-family="Helvetica-Light,Helvetica" font-size="24.0" fill="#FEFFFE" transform="matrix(1.00, 0.00, -0.00, -1.00, 544.3, 256.0)">S</text><text xml:space="preserve" font-family="Helvetica-Light,Helvetica" font-size="24.0" fill="#FEFFFE" transform="matrix(1.00, 0.00, -0.00, -1.00, 559.0, 256.0)">i</text><text xml:space="preserve" font-family="Helvetica-Light,Helvetica" font-size="24.0" fill="#FEFFFE" transform="matrix(1.00, 0.00, -0.00, -1.00, 564.3, 256.0)">n</text><text xml:space="preserve" font-family="Helvetica-Light,Helvetica" font-size="24.0" fill="#FEFFFE" transform="matrix(1.00, 0.00, -0.00, -1.00, 577.6, 256.0)"> </text><text xml:space="preserve" font-family="Helvetica-Light,Helvetica" font-size="24.0" fill="#FEFFFE" transform="matrix(1.00, 0.00, -0.00, -1.00, 584.3, 256.0)">t</text><text xml:space="preserve" font-family="Helvetica-Light,Helvetica" font-size="24.0" fill="#FEFFFE" transform="matrix(1.00, 0.00, -0.00, -1.00, 591.0, 256.0)">e</text><text xml:space="preserve" font-family="Helvetica-Light,Helvetica" font-size="24.0" fill="#FEFFFE" transform="matrix(1.00, 0.00, -0.00, -1.00, 604.3, 256.0)">s</text><text xml:space="preserve" font-family="Helvetica-Light,Helvetica" font-size="24.0" fill="#FEFFFE" transform="matrix(1.00, 0.00, -0.00, -1.00, 616.3, 256.0)">t</text><text xml:space="preserve" font-family="Helvetica-Light,Helvetica" font-size="24.0" fill="#FEFFFE" transform="matrix(1.00, 0.00, -0.00, -1.00, 623.0, 256.0)"> </text><text xml:space="preserve" font-family="Helvetica-Light,Helvetica" font-size="24.0" fill="#FEFFFE" transform="matrix(1.00, 0.00, -0.00, -1.00, 629.7, 256.0)">n</text><text xml:space="preserve" font-family="Helvetica-Light,Helvetica" font-size="24.0" fill="#FEFFFE" transform="matrix(1.00, 0.00, -0.00, -1.00, 643.0, 256.0)">o</text><text xml:space="preserve" font-family="Helvetica-Light,Helvetica" font-size="24.0" fill="#FEFFFE" transform="matrix(1.00, 0.00, -0.00, -1.00, 656.4, 256.0)"> </text><text xml:space="preserve" font-family="Helvetica-Light,Helvetica" font-size="24.0" fill="#FEFFFE" transform="matrix(1.00, 0.00, -0.00, -1.00, 536.5, 227.0)">h</text><text xml:space="preserve" font-family="Helvetica-Light,Helvetica" font-size="24.0" fill="#FEFFFE" transform="matrix(1.00, 0.00, -0.00, -1.00, 549.9, 227.0)">a</text><text xml:space="preserve" font-family="Helvetica-Light,Helvetica" font-size="24.0" fill="#FEFFFE" transform="matrix(1.00, 0.00, -0.00, -1.00, 563.2, 227.0)">y</text><text xml:space="preserve" font-family="Helvetica-Light,Helvetica" font-size="24.0" fill="#FEFFFE" transform="matrix(1.00, 0.00, -0.00, -1.00, 575.2, 227.0)"> </text><text xml:space="preserve" font-family="Helvetica-Light,Helvetica" font-size="24.0" fill="#FEFFFE" transform="matrix(1.00, 0.00, -0.00, -1.00, 581.9, 227.0)">r</text><text xml:space="preserve" font-family="Helvetica-Light,Helvetica" font-size="24.0" fill="#FEFFFE" transform="matrix(1.00, 0.00, -0.00, -1.00, 589.4, 227.0)">e</text><text xml:space="preserve" font-family="Helvetica-Light,Helvetica" font-size="24.0" fill="#FEFFFE" transform="matrix(1.00, 0.00, -0.00, -1.00, 602.8, 227.0)">f</text><text xml:space="preserve" font-family="Helvetica-Light,Helvetica" font-size="24.0" fill="#FEFFFE" transform="matrix(1.00, 0.00, -0.00, -1.00, 609.5, 227.0)">a</text><text xml:space="preserve" font-family="Helvetica-Light,Helvetica" font-size="24.0" fill="#FEFFFE" transform="matrix(1.00, 0.00, -0.00, -1.00, 622.8, 227.0)">c</text><text xml:space="preserve" font-family="Helvetica-Light,Helvetica" font-size="24.0" fill="#FEFFFE" transform="matrix(1.00, 0.00, -0.00, -1.00, 636.1, 227.0)">t</text><text xml:space="preserve" font-family="Helvetica-Light,Helvetica" font-size="24.0" fill="#FEFFFE" transform="matrix(1.00, 0.00, -0.00, -1.00, 642.8, 227.0)">o</text><text xml:space="preserve" font-family="Helvetica-Light,Helvetica" font-size="24.0" fill="#FEFFFE" transform="matrix(1.00, 0.00, -0.00, -1.00, 656.2, 227.0)">r</text></g></g><image xlink:href="270472F96D843F8E3A84CB9287C4545F.png" width="158.00" height="158.00" transform="matrix(1.00, 0.00, -0.00, -1.00, 643.0, 458.5)" opacity="0.50"></image><path d="M 646.0 454.0 L 796.0 454.0 L 796.0 304.0 L 646.0 304.0 Z M 646.0 454.5 " fill="#0B5C18"></path><g><clipPath id="clip0x6000034b69e0"><path d="M 644.0 304.5 L 798.0 304.5 L 798.0 454.5 L 644.0 454.5 Z M 644.0 304.5 "></path></clipPath><g clip-path="url(#clip0x6000034b69e0)"><text xml:space="preserve" font-family="Helvetica-Light,Helvetica" font-size="24.0" fill="#FEFFFE" transform="matrix(1.00, 0.00, -0.00, -1.00, 673.7, 385.0)">C</text><text xml:space="preserve" font-family="Helvetica-Light,Helvetica" font-size="24.0" fill="#FEFFFE" transform="matrix(1.00, 0.00, -0.00, -1.00, 691.0, 385.0)">o</text><text xml:space="preserve" font-family="Helvetica-Light,Helvetica" font-size="24.0" fill="#FEFFFE" transform="matrix(1.00, 0.00, -0.00, -1.00, 704.3, 385.0)">m</text><text xml:space="preserve" font-family="Helvetica-Light,Helvetica" font-size="24.0" fill="#FEFFFE" transform="matrix(1.00, 0.00, -0.00, -1.00, 724.3, 385.0)">m</text><text xml:space="preserve" font-family="Helvetica-Light,Helvetica" font-size="24.0" fill="#FEFFFE" transform="matrix(1.00, 0.00, -0.00, -1.00, 744.3, 385.0)">i</text><text xml:space="preserve" font-family="Helvetica-Light,Helvetica" font-size="24.0" fill="#FEFFFE" transform="matrix(1.00, 0.00, -0.00, -1.00, 749.7, 385.0)">t</text><text xml:space="preserve" font-family="Helvetica-Light,Helvetica" font-size="24.0" fill="#FEFFFE" transform="matrix(1.00, 0.00, -0.00, -1.00, 756.3, 385.0)">s</text><text xml:space="preserve" font-family="Helvetica-Light,Helvetica" font-size="24.0" fill="#FEFFFE" transform="matrix(1.00, 0.00, -0.00, -1.00, 768.3, 385.0)"> </text><text xml:space="preserve" font-family="Helvetica-Light,Helvetica" font-size="24.0" fill="#FEFFFE" transform="matrix(1.00, 0.00, -0.00, -1.00, 667.0, 356.0)">p</text><text xml:space="preserve" font-family="Helvetica-Light,Helvetica" font-size="24.0" fill="#FEFFFE" transform="matrix(1.00, 0.00, -0.00, -1.00, 681.6, 356.0)">e</text><text xml:space="preserve" font-family="Helvetica-Light,Helvetica" font-size="24.0" fill="#FEFFFE" transform="matrix(1.00, 0.00, -0.00, -1.00, 695.0, 356.0)">q</text><text xml:space="preserve" font-family="Helvetica-Light,Helvetica" font-size="24.0" fill="#FEFFFE" transform="matrix(1.00, 0.00, -0.00, -1.00, 709.6, 356.0)">u</text><text xml:space="preserve" font-family="Helvetica-Light,Helvetica" font-size="24.0" fill="#FEFFFE" transform="matrix(1.00, 0.00, -0.00, -1.00, 723.0, 356.0)">e</text><text xml:space="preserve" font-family="Helvetica-Light,Helvetica" font-size="24.0" fill="#FEFFFE" transform="matrix(1.00, 0.00, -0.00, -1.00, 736.3, 356.0)">ñ</text><text xml:space="preserve" font-family="Helvetica-Light,Helvetica" font-size="24.0" fill="#FEFFFE" transform="matrix(1.00, 0.00, -0.00, -1.00, 749.7, 356.0)">o</text><text xml:space="preserve" font-family="Helvetica-Light,Helvetica" font-size="24.0" fill="#FEFFFE" transform="matrix(1.00, 0.00, -0.00, -1.00, 763.0, 356.0)">s</text></g></g><image xlink:href="0B81C9AB1157CCFC0F82E31AFA775F0B.png" width="158.00" height="158.00" transform="matrix(1.00, 0.00, -0.00, -1.00, 776.7, 329.5)" opacity="0.50"></image><path d="M 780.0 325.0 L 930.0 325.0 L 930.0 175.0 L 780.0 175.0 Z M 779.7 325.5 " fill="#6FBF40"></path><g><clipPath id="clip0x6000034b7340"><path d="M 777.7 175.5 L 931.7 175.5 L 931.7 325.5 L 777.7 325.5 Z M 777.7 175.5 "></path></clipPath><g clip-path="url(#clip0x6000034b7340)"><text xml:space="preserve" font-family="Helvetica-Light,Helvetica" font-size="24.0" fill="#FEFFFE" transform="matrix(1.00, 0.00, -0.00, -1.00, 814.0, 270.0)">B</text><text xml:space="preserve" font-family="Helvetica-Light,Helvetica" font-size="24.0" fill="#FEFFFE" transform="matrix(1.00, 0.00, -0.00, -1.00, 830.0, 270.0)">u</text><text xml:space="preserve" font-family="Helvetica-Light,Helvetica" font-size="24.0" fill="#FEFFFE" transform="matrix(1.00, 0.00, -0.00, -1.00, 843.3, 270.0)">e</text><text xml:space="preserve" font-family="Helvetica-Light,Helvetica" font-size="24.0" fill="#FEFFFE" transform="matrix(1.00, 0.00, -0.00, -1.00, 856.7, 270.0)">n</text><text xml:space="preserve" font-family="Helvetica-Light,Helvetica" font-size="24.0" fill="#FEFFFE" transform="matrix(1.00, 0.00, -0.00, -1.00, 870.0, 270.0)">o</text><text xml:space="preserve" font-family="Helvetica-Light,Helvetica" font-size="24.0" fill="#FEFFFE" transform="matrix(1.00, 0.00, -0.00, -1.00, 883.4, 270.0)">s</text><text xml:space="preserve" font-family="Helvetica-Light,Helvetica" font-size="24.0" fill="#FEFFFE" transform="matrix(1.00, 0.00, -0.00, -1.00, 895.4, 270.0)"> </text><text xml:space="preserve" font-family="Helvetica-Light,Helvetica" font-size="24.0" fill="#FEFFFE" transform="matrix(1.00, 0.00, -0.00, -1.00, 786.0, 241.0)">m</text><text xml:space="preserve" font-family="Helvetica-Light,Helvetica" font-size="24.0" fill="#FEFFFE" transform="matrix(1.00, 0.00, -0.00, -1.00, 806.0, 241.0)">e</text><text xml:space="preserve" font-family="Helvetica-Light,Helvetica" font-size="24.0" fill="#FEFFFE" transform="matrix(1.00, 0.00, -0.00, -1.00, 819.3, 241.0)">n</text><text xml:space="preserve" font-family="Helvetica-Light,Helvetica" font-size="24.0" fill="#FEFFFE" transform="matrix(1.00, 0.00, -0.00, -1.00, 832.7, 241.0)">s</text><text xml:space="preserve" font-family="Helvetica-Light,Helvetica" font-size="24.0" fill="#FEFFFE" transform="matrix(1.00, 0.00, -0.00, -1.00, 844.7, 241.0)">a</text><text xml:space="preserve" font-family="Helvetica-Light,Helvetica" font-size="24.0" fill="#FEFFFE" transform="matrix(1.00, 0.00, -0.00, -1.00, 858.0, 241.0)">j</text><text xml:space="preserve" font-family="Helvetica-Light,Helvetica" font-size="24.0" fill="#FEFFFE" transform="matrix(1.00, 0.00, -0.00, -1.00, 863.3, 241.0)">e</text><text xml:space="preserve" font-family="Helvetica-Light,Helvetica" font-size="24.0" fill="#FEFFFE" transform="matrix(1.00, 0.00, -0.00, -1.00, 876.7, 241.0)">s</text><text xml:space="preserve" font-family="Helvetica-Light,Helvetica" font-size="24.0" fill="#FEFFFE" transform="matrix(1.00, 0.00, -0.00, -1.00, 888.7, 241.0)"> </text><text xml:space="preserve" font-family="Helvetica-Light,Helvetica" font-size="24.0" fill="#FEFFFE" transform="matrix(1.00, 0.00, -0.00, -1.00, 895.3, 241.0)">d</text><text xml:space="preserve" font-family="Helvetica-Light,Helvetica" font-size="24.0" fill="#FEFFFE" transform="matrix(1.00, 0.00, -0.00, -1.00, 910.0, 241.0)">e</text><text xml:space="preserve" font-family="Helvetica-Light,Helvetica" font-size="24.0" fill="#FEFFFE" transform="matrix(1.00, 0.00, -0.00, -1.00, 923.4, 241.0)"> </text><text xml:space="preserve" font-family="Helvetica-Light,Helvetica" font-size="24.0" fill="#FEFFFE" transform="matrix(1.00, 0.00, -0.00, -1.00, 809.3, 212.0)">c</text><text xml:space="preserve" font-family="Helvetica-Light,Helvetica" font-size="24.0" fill="#FEFFFE" transform="matrix(1.00, 0.00, -0.00, -1.00, 822.7, 212.0)">o</text><text xml:space="preserve" font-family="Helvetica-Light,Helvetica" font-size="24.0" fill="#FEFFFE" transform="matrix(1.00, 0.00, -0.00, -1.00, 836.0, 212.0)">m</text><text xml:space="preserve" font-family="Helvetica-Light,Helvetica" font-size="24.0" fill="#FEFFFE" transform="matrix(1.00, 0.00, -0.00, -1.00, 856.0, 212.0)">m</text><text xml:space="preserve" font-family="Helvetica-Light,Helvetica" font-size="24.0" fill="#FEFFFE" transform="matrix(1.00, 0.00, -0.00, -1.00, 876.0, 212.0)">i</text><text xml:space="preserve" font-family="Helvetica-Light,Helvetica" font-size="24.0" fill="#FEFFFE" transform="matrix(1.00, 0.00, -0.00, -1.00, 881.3, 212.0)">t</text><text xml:space="preserve" font-family="Helvetica-Light,Helvetica" font-size="24.0" fill="#FEFFFE" transform="matrix(1.00, 0.00, -0.00, -1.00, 888.0, 212.0)">s</text></g></g><text xml:space="preserve" font-family="Helvetica-LightOblique,Helvetica" font-style="italic" font-size="25.0" fill="#000000" transform="matrix(1.00, 0.00, -0.00, -1.00, 539.9, 526.5)">P</text><text xml:space="preserve" font-family="Helvetica-LightOblique,Helvetica" font-style="italic" font-size="25.0" fill="#000000" transform="matrix(1.00, 0.00, -0.00, -1.00, 555.2, 526.5)">o</text><text xml:space="preserve" font-family="Helvetica-LightOblique,Helvetica" font-style="italic" font-size="25.0" fill="#000000" transform="matrix(1.00, 0.00, -0.00, -1.00, 569.1, 526.5)">r</text><text xml:space="preserve" font-family="Helvetica-LightOblique,Helvetica" font-style="italic" font-size="25.0" fill="#000000" transform="matrix(1.00, 0.00, -0.00, -1.00, 576.9, 526.5)">q</text><text xml:space="preserve" font-family="Helvetica-LightOblique,Helvetica" font-style="italic" font-size="25.0" fill="#000000" transform="matrix(1.00, 0.00, -0.00, -1.00, 592.2, 526.5)">u</text><text xml:space="preserve" font-family="Helvetica-LightOblique,Helvetica" font-style="italic" font-size="25.0" fill="#000000" transform="matrix(1.00, 0.00, -0.00, -1.00, 606.1, 526.5)">e</text><text xml:space="preserve" font-family="Helvetica-LightOblique,Helvetica" font-style="italic" font-size="25.0" fill="#000000" transform="matrix(1.00, 0.00, -0.00, -1.00, 620.0, 526.5)"> </text><text xml:space="preserve" font-family="Helvetica-LightOblique,Helvetica" font-style="italic" font-size="25.0" fill="#000000" transform="matrix(1.00, 0.00, -0.00, -1.00, 627.0, 526.5)">t</text><text xml:space="preserve" font-family="Helvetica-LightOblique,Helvetica" font-style="italic" font-size="25.0" fill="#000000" transform="matrix(1.00, 0.00, -0.00, -1.00, 633.9, 526.5)">e</text><text xml:space="preserve" font-family="Helvetica-LightOblique,Helvetica" font-style="italic" font-size="25.0" fill="#000000" transform="matrix(1.00, 0.00, -0.00, -1.00, 647.8, 526.5)">n</text><text xml:space="preserve" font-family="Helvetica-LightOblique,Helvetica" font-style="italic" font-size="25.0" fill="#000000" transform="matrix(1.00, 0.00, -0.00, -1.00, 661.7, 526.5)">g</text><text xml:space="preserve" font-family="Helvetica-LightOblique,Helvetica" font-style="italic" font-size="25.0" fill="#000000" transform="matrix(1.00, 0.00, -0.00, -1.00, 677.0, 526.5)">a</text><text xml:space="preserve" font-family="Helvetica-LightOblique,Helvetica" font-style="italic" font-size="25.0" fill="#000000" transform="matrix(1.00, 0.00, -0.00, -1.00, 690.9, 526.5)">s</text><text xml:space="preserve" font-family="Helvetica-LightOblique,Helvetica" font-style="italic" font-size="25.0" fill="#000000" transform="matrix(1.00, 0.00, -0.00, -1.00, 703.4, 526.5)"> </text><text xml:space="preserve" font-family="Helvetica-LightOblique,Helvetica" font-style="italic" font-size="25.0" fill="#000000" transform="matrix(1.00, 0.00, -0.00, -1.00, 710.3, 526.5)">u</text><text xml:space="preserve" font-family="Helvetica-LightOblique,Helvetica" font-style="italic" font-size="25.0" fill="#000000" transform="matrix(1.00, 0.00, -0.00, -1.00, 724.2, 526.5)">n</text><text xml:space="preserve" font-family="Helvetica-LightOblique,Helvetica" font-style="italic" font-size="25.0" fill="#000000" transform="matrix(1.00, 0.00, -0.00, -1.00, 738.1, 526.5)"> </text><text xml:space="preserve" font-family="Helvetica-LightOblique,Helvetica" font-style="italic" font-size="25.0" fill="#000000" transform="matrix(1.00, 0.00, -0.00, -1.00, 745.1, 526.5)">b</text><text xml:space="preserve" font-family="Helvetica-LightOblique,Helvetica" font-style="italic" font-size="25.0" fill="#000000" transform="matrix(1.00, 0.00, -0.00, -1.00, 760.4, 526.5)">u</text><text xml:space="preserve" font-family="Helvetica-LightOblique,Helvetica" font-style="italic" font-size="25.0" fill="#000000" transform="matrix(1.00, 0.00, -0.00, -1.00, 774.3, 526.5)">e</text><text xml:space="preserve" font-family="Helvetica-LightOblique,Helvetica" font-style="italic" font-size="25.0" fill="#000000" transform="matrix(1.00, 0.00, -0.00, -1.00, 788.2, 526.5)">n</text><text xml:space="preserve" font-family="Helvetica-LightOblique,Helvetica" font-style="italic" font-size="25.0" fill="#000000" transform="matrix(1.00, 0.00, -0.00, -1.00, 802.1, 526.5)"> </text><text xml:space="preserve" font-family="Helvetica-LightOblique,Helvetica" font-style="italic" font-size="25.0" fill="#000000" transform="matrix(1.00, 0.00, -0.00, -1.00, 809.0, 526.5)">c</text><text xml:space="preserve" font-family="Helvetica-LightOblique,Helvetica" font-style="italic" font-size="25.0" fill="#000000" transform="matrix(1.00, 0.00, -0.00, -1.00, 822.9, 526.5)">u</text><text xml:space="preserve" font-family="Helvetica-LightOblique,Helvetica" font-style="italic" font-size="25.0" fill="#000000" transform="matrix(1.00, 0.00, -0.00, -1.00, 836.8, 526.5)">c</text><text xml:space="preserve" font-family="Helvetica-LightOblique,Helvetica" font-style="italic" font-size="25.0" fill="#000000" transform="matrix(1.00, 0.00, -0.00, -1.00, 850.7, 526.5)">h</text><text xml:space="preserve" font-family="Helvetica-LightOblique,Helvetica" font-style="italic" font-size="25.0" fill="#000000" transform="matrix(1.00, 0.00, -0.00, -1.00, 864.6, 526.5)">i</text><text xml:space="preserve" font-family="Helvetica-LightOblique,Helvetica" font-style="italic" font-size="25.0" fill="#000000" transform="matrix(1.00, 0.00, -0.00, -1.00, 870.2, 526.5)">l</text><text xml:space="preserve" font-family="Helvetica-LightOblique,Helvetica" font-style="italic" font-size="25.0" fill="#000000" transform="matrix(1.00, 0.00, -0.00, -1.00, 875.7, 526.5)">l</text><text xml:space="preserve" font-family="Helvetica-LightOblique,Helvetica" font-style="italic" font-size="25.0" fill="#000000" transform="matrix(1.00, 0.00, -0.00, -1.00, 881.3, 526.5)">o</text><text xml:space="preserve" font-family="Helvetica-LightOblique,Helvetica" font-style="italic" font-size="25.0" fill="#000000" transform="matrix(1.00, 0.00, -0.00, -1.00, 895.2, 526.5)">,</text><text xml:space="preserve" font-family="Helvetica-LightOblique,Helvetica" font-style="italic" font-size="25.0" fill="#000000" transform="matrix(1.00, 0.00, -0.00, -1.00, 902.1, 526.5)"> </text><text xml:space="preserve" font-family="Helvetica-LightOblique,Helvetica" font-style="italic" font-size="25.0" fill="#000000" transform="matrix(1.00, 0.00, -0.00, -1.00, 551.7, 496.5)">n</text><text xml:space="preserve" font-family="Helvetica-LightOblique,Helvetica" font-style="italic" font-size="25.0" fill="#000000" transform="matrix(1.00, 0.00, -0.00, -1.00, 565.6, 496.5)">o</text><text xml:space="preserve" font-family="Helvetica-LightOblique,Helvetica" font-style="italic" font-size="25.0" fill="#000000" transform="matrix(1.00, 0.00, -0.00, -1.00, 579.5, 496.5)"> </text><text xml:space="preserve" font-family="Helvetica-LightOblique,Helvetica" font-style="italic" font-size="25.0" fill="#000000" transform="matrix(1.00, 0.00, -0.00, -1.00, 586.4, 496.5)">v</text><text xml:space="preserve" font-family="Helvetica-LightOblique,Helvetica" font-style="italic" font-size="25.0" fill="#000000" transform="matrix(1.00, 0.00, -0.00, -1.00, 598.9, 496.5)">a</text><text xml:space="preserve" font-family="Helvetica-LightOblique,Helvetica" font-style="italic" font-size="25.0" fill="#000000" transform="matrix(1.00, 0.00, -0.00, -1.00, 612.8, 496.5)">s</text><text xml:space="preserve" font-family="Helvetica-LightOblique,Helvetica" font-style="italic" font-size="25.0" fill="#000000" transform="matrix(1.00, 0.00, -0.00, -1.00, 625.3, 496.5)"> </text><text xml:space="preserve" font-family="Helvetica-LightOblique,Helvetica" font-style="italic" font-size="25.0" fill="#000000" transform="matrix(1.00, 0.00, -0.00, -1.00, 632.3, 496.5)">a</text><text xml:space="preserve" font-family="Helvetica-LightOblique,Helvetica" font-style="italic" font-size="25.0" fill="#000000" transform="matrix(1.00, 0.00, -0.00, -1.00, 646.2, 496.5)"> </text><text xml:space="preserve" font-family="Helvetica-LightOblique,Helvetica" font-style="italic" font-size="25.0" fill="#000000" transform="matrix(1.00, 0.00, -0.00, -1.00, 653.1, 496.5)">s</text><text xml:space="preserve" font-family="Helvetica-LightOblique,Helvetica" font-style="italic" font-size="25.0" fill="#000000" transform="matrix(1.00, 0.00, -0.00, -1.00, 665.6, 496.5)">e</text><text xml:space="preserve" font-family="Helvetica-LightOblique,Helvetica" font-style="italic" font-size="25.0" fill="#000000" transform="matrix(1.00, 0.00, -0.00, -1.00, 679.5, 496.5)">r</text><text xml:space="preserve" font-family="Helvetica-LightOblique,Helvetica" font-style="italic" font-size="25.0" fill="#000000" transform="matrix(1.00, 0.00, -0.00, -1.00, 687.9, 496.5)"> </text><text xml:space="preserve" font-family="Helvetica-LightOblique,Helvetica" font-style="italic" font-size="25.0" fill="#000000" transform="matrix(1.00, 0.00, -0.00, -1.00, 694.8, 496.5)">u</text><text xml:space="preserve" font-family="Helvetica-LightOblique,Helvetica" font-style="italic" font-size="25.0" fill="#000000" transform="matrix(1.00, 0.00, -0.00, -1.00, 708.7, 496.5)">n</text><text xml:space="preserve" font-family="Helvetica-LightOblique,Helvetica" font-style="italic" font-size="25.0" fill="#000000" transform="matrix(1.00, 0.00, -0.00, -1.00, 722.6, 496.5)"> </text><text xml:space="preserve" font-family="Helvetica-LightOblique,Helvetica" font-style="italic" font-size="25.0" fill="#000000" transform="matrix(1.00, 0.00, -0.00, -1.00, 729.6, 496.5)">b</text><text xml:space="preserve" font-family="Helvetica-LightOblique,Helvetica" font-style="italic" font-size="25.0" fill="#000000" transform="matrix(1.00, 0.00, -0.00, -1.00, 744.8, 496.5)">u</text><text xml:space="preserve" font-family="Helvetica-LightOblique,Helvetica" font-style="italic" font-size="25.0" fill="#000000" transform="matrix(1.00, 0.00, -0.00, -1.00, 758.7, 496.5)">e</text><text xml:space="preserve" font-family="Helvetica-LightOblique,Helvetica" font-style="italic" font-size="25.0" fill="#000000" transform="matrix(1.00, 0.00, -0.00, -1.00, 772.6, 496.5)">n</text><text xml:space="preserve" font-family="Helvetica-LightOblique,Helvetica" font-style="italic" font-size="25.0" fill="#000000" transform="matrix(1.00, 0.00, -0.00, -1.00, 786.5, 496.5)"> </text><text xml:space="preserve" font-family="Helvetica-LightOblique,Helvetica" font-style="italic" font-size="25.0" fill="#000000" transform="matrix(1.00, 0.00, -0.00, -1.00, 793.5, 496.5)">c</text><text xml:space="preserve" font-family="Helvetica-LightOblique,Helvetica" font-style="italic" font-size="25.0" fill="#000000" transform="matrix(1.00, 0.00, -0.00, -1.00, 807.4, 496.5)">o</text><text xml:space="preserve" font-family="Helvetica-LightOblique,Helvetica" font-style="italic" font-size="25.0" fill="#000000" transform="matrix(1.00, 0.00, -0.00, -1.00, 821.3, 496.5)">c</text><text xml:space="preserve" font-family="Helvetica-LightOblique,Helvetica" font-style="italic" font-size="25.0" fill="#000000" transform="matrix(1.00, 0.00, -0.00, -1.00, 835.2, 496.5)">i</text><text xml:space="preserve" font-family="Helvetica-LightOblique,Helvetica" font-style="italic" font-size="25.0" fill="#000000" transform="matrix(1.00, 0.00, -0.00, -1.00, 840.7, 496.5)">n</text><text xml:space="preserve" font-family="Helvetica-LightOblique,Helvetica" font-style="italic" font-size="25.0" fill="#000000" transform="matrix(1.00, 0.00, -0.00, -1.00, 854.6, 496.5)">e</text><text xml:space="preserve" font-family="Helvetica-LightOblique,Helvetica" font-style="italic" font-size="25.0" fill="#000000" transform="matrix(1.00, 0.00, -0.00, -1.00, 868.5, 496.5)">r</text><text xml:space="preserve" font-family="Helvetica-LightOblique,Helvetica" font-style="italic" font-size="25.0" fill="#000000" transform="matrix(1.00, 0.00, -0.00, -1.00, 876.4, 496.5)">o</text></g></svg>