<?xml version="1.0" encoding="UTF-8" standalone="no"?><svg xmlns="http://www.w3.org/2000/svg" xmlns:xlink="http://www.w3.org/1999/xlink" clip-rule="evenodd" stroke-miterlimit="10" viewBox="0 0 1024 768"><desc>SVG generated by Keynote</desc><defs><pattern id="patternP1" patternUnits="userSpaceOnUse" width="600" height="600" viewBox="0 0 600 600"><image xlink:href="../../747A2862-51A0-448D-B118-68AFCB54B581/assets/54AAA609FA4289ED6813ACB24DD77507.png" width="600.00" height="600.00"></image></pattern></defs><g transform="matrix(1.00, 0.00, -0.00, -1.00, 0.0, 768.0)"><path d="M 0.0 768.0 L 1024.0 768.0 L 1024.0 0.0 L 0.0 0.0 Z M 0.0 768.0 " fill="#FEFFFF"></path><g><clipPath id="clip0x6080032ab460"><path d="M -7.0 86.0 L 684.0 86.0 L 684.0 18.0 L -7.0 18.0 Z M -6.5 86.3 "></path></clipPath><g clip-path="url(#clip0x6080032ab460)"><g><clipPath id="clip0x6080030bb240"><path d="M -7.5 16.9 L 684.8 16.9 L 684.8 87.3 L -7.5 87.3 Z M -7.5 16.9 "></path></clipPath><g clip-path="url(#clip0x6080030bb240)"><path d="M 0.0 18.0 L 684.0 18.0 L 684.0 86.0 L 0.0 86.0 Z M 0.0 18.0 " fill="url(#patternP1)"></path></g></g></g></g><g><clipPath id="clip0x600002eab1c0"><path d="M 684.0 16.9 L 1029.5 16.9 L 1029.5 87.3 L 684.0 87.3 Z M 684.0 16.9 "></path></clipPath><g clip-path="url(#clip0x600002eab1c0)"><path d="M 685.0 86.0 L 1028.0 86.0 L 1028.0 18.0 L 685.0 18.0 Z M 685.0 86.3 " fill="#0B5C18"></path></g></g><g><clipPath id="clip0x6000030af420"><path d="M 703.7 8.0 L 1009.8 8.0 L 1009.8 98.0 L 703.7 98.0 Z M 703.7 8.0 "></path></clipPath><g clip-path="url(#clip0x6000030af420)"><text xml:space="preserve" font-family="Helvetica-Light,Helvetica" font-size="20.0" fill="#FEFFFF" transform="matrix(1.00, 0.00, -0.00, -1.00, 803.4, 49.6)">j</text><text xml:space="preserve" font-family="Helvetica-Light,Helvetica" font-size="20.0" fill="#FEFFFF" transform="matrix(1.00, 0.00, -0.00, -1.00, 807.8, 49.6)">e</text><text xml:space="preserve" font-family="Helvetica-Light,Helvetica" font-size="20.0" fill="#FEFFFF" transform="matrix(1.00, 0.00, -0.00, -1.00, 818.9, 49.6)">s</text><text xml:space="preserve" font-family="Helvetica-Light,Helvetica" font-size="20.0" fill="#FEFFFF" transform="matrix(1.00, 0.00, -0.00, -1.00, 828.9, 49.6)">u</text><text xml:space="preserve" font-family="Helvetica-Light,Helvetica" font-size="20.0" fill="#FEFFFF" transform="matrix(1.00, 0.00, -0.00, -1.00, 840.1, 49.6)">s</text><text xml:space="preserve" font-family="Helvetica-Light,Helvetica" font-size="20.0" fill="#FEFFFF" transform="matrix(1.00, 0.00, -0.00, -1.00, 850.1, 49.6)">l</text><text xml:space="preserve" font-family="Helvetica-Light,Helvetica" font-size="20.0" fill="#FEFFFF" transform="matrix(1.00, 0.00, -0.00, -1.00, 854.5, 49.6)">c</text><text xml:space="preserve" font-family="Helvetica-Light,Helvetica" font-size="20.0" fill="#FEFFFF" transform="matrix(1.00, 0.00, -0.00, -1.00, 865.6, 49.6)">.</text><text xml:space="preserve" font-family="Helvetica-Light,Helvetica" font-size="20.0" fill="#FEFFFF" transform="matrix(1.00, 0.00, -0.00, -1.00, 871.2, 49.6)">c</text><text xml:space="preserve" font-family="Helvetica-Light,Helvetica" font-size="20.0" fill="#FEFFFF" transform="matrix(1.00, 0.00, -0.00, -1.00, 882.3, 49.6)">o</text><text xml:space="preserve" font-family="Helvetica-Light,Helvetica" font-size="20.0" fill="#FEFFFF" transform="matrix(1.00, 0.00, -0.00, -1.00, 893.4, 49.6)">m</text><path d="M 98.7 48.9 L 205.4 48.9 " fill="none" stroke="#FEFFFF" stroke-width="1.00" transform="matrix(1.00, 0.00, 0.00, -1.00, 704.7, 97.0)"></path></g></g><g><clipPath id="clip0x6000032bc800"><path d="M -26.8 3.0 L 279.3 3.0 L 279.3 93.0 L -26.8 93.0 Z M -26.8 3.0 "></path></clipPath><g clip-path="url(#clip0x6000032bc800)"><text xml:space="preserve" font-family="Helvetica-Light,Helvetica" font-size="20.0" fill="#FEFFFF" transform="matrix(1.00, 0.00, -0.00, -1.00, 70.1, 44.6)">T</text><text xml:space="preserve" font-family="Helvetica-Light,Helvetica" font-size="20.0" fill="#FEFFFF" transform="matrix(1.00, 0.00, -0.00, -1.00, 81.3, 44.6)">D</text><text xml:space="preserve" font-family="Helvetica-Light,Helvetica" font-size="20.0" fill="#FEFFFF" transform="matrix(1.00, 0.00, -0.00, -1.00, 95.7, 44.6)">D</text><text xml:space="preserve" font-family="Helvetica-Light,Helvetica" font-size="20.0" fill="#FEFFFF" transform="matrix(1.00, 0.00, -0.00, -1.00, 110.1, 44.6)"> </text><text xml:space="preserve" font-family="Helvetica-Light,Helvetica" font-size="20.0" fill="#FEFFFF" transform="matrix(1.00, 0.00, -0.00, -1.00, 115.7, 44.6)">e</text><text xml:space="preserve" font-family="Helvetica-Light,Helvetica" font-size="20.0" fill="#FEFFFF" transform="matrix(1.00, 0.00, -0.00, -1.00, 126.8, 44.6)">n</text><text xml:space="preserve" font-family="Helvetica-Light,Helvetica" font-size="20.0" fill="#FEFFFF" transform="matrix(1.00, 0.00, -0.00, -1.00, 137.9, 44.6)"> </text><text xml:space="preserve" font-family="Helvetica-Light,Helvetica" font-size="20.0" fill="#FEFFFF" transform="matrix(1.00, 0.00, -0.00, -1.00, 143.5, 44.6)">P</text><text xml:space="preserve" font-family="Helvetica-Light,Helvetica" font-size="20.0" fill="#FEFFFF" transform="matrix(1.00, 0.00, -0.00, -1.00, 155.7, 44.6)">H</text><text xml:space="preserve" font-family="Helvetica-Light,Helvetica" font-size="20.0" fill="#FEFFFF" transform="matrix(1.00, 0.00, -0.00, -1.00, 170.2, 44.6)">P</text></g></g><text xml:space="preserve" font-family="Helvetica-Light,Helvetica" font-size="75.2" fill="#00872A" transform="matrix(1.00, 0.00, -0.00, -1.00, 81.6, 620.3)">¿</text><text xml:space="preserve" font-family="Helvetica-Light,Helvetica" font-size="75.2" fill="#00872A" transform="matrix(1.00, 0.00, -0.00, -1.00, 119.2, 620.3)">P</text><text xml:space="preserve" font-family="Helvetica-Light,Helvetica" font-size="75.2" fill="#00872A" transform="matrix(1.00, 0.00, -0.00, -1.00, 165.1, 620.3)">o</text><text xml:space="preserve" font-family="Helvetica-Light,Helvetica" font-size="75.2" fill="#00872A" transform="matrix(1.00, 0.00, -0.00, -1.00, 207.0, 620.3)">r</text><text xml:space="preserve" font-family="Helvetica-Light,Helvetica" font-size="75.2" fill="#00872A" transform="matrix(1.00, 0.00, -0.00, -1.00, 232.0, 620.3)"> </text><text xml:space="preserve" font-family="Helvetica-Light,Helvetica" font-size="75.2" fill="#00872A" transform="matrix(1.00, 0.00, -0.00, -1.00, 252.9, 620.3)">d</text><text xml:space="preserve" font-family="Helvetica-Light,Helvetica" font-size="75.2" fill="#00872A" transform="matrix(1.00, 0.00, -0.00, -1.00, 298.8, 620.3)">ó</text><text xml:space="preserve" font-family="Helvetica-Light,Helvetica" font-size="75.2" fill="#00872A" transform="matrix(1.00, 0.00, -0.00, -1.00, 340.7, 620.3)">n</text><text xml:space="preserve" font-family="Helvetica-Light,Helvetica" font-size="75.2" fill="#00872A" transform="matrix(1.00, 0.00, -0.00, -1.00, 382.5, 620.3)">d</text><text xml:space="preserve" font-family="Helvetica-Light,Helvetica" font-size="75.2" fill="#00872A" transform="matrix(1.00, 0.00, -0.00, -1.00, 428.4, 620.3)">e</text><text xml:space="preserve" font-family="Helvetica-Light,Helvetica" font-size="75.2" fill="#00872A" transform="matrix(1.00, 0.00, -0.00, -1.00, 470.2, 620.3)"> </text><text xml:space="preserve" font-family="Helvetica-Light,Helvetica" font-size="75.2" fill="#00872A" transform="matrix(1.00, 0.00, -0.00, -1.00, 491.1, 620.3)">e</text><text xml:space="preserve" font-family="Helvetica-Light,Helvetica" font-size="75.2" fill="#00872A" transform="matrix(1.00, 0.00, -0.00, -1.00, 532.9, 620.3)">m</text><text xml:space="preserve" font-family="Helvetica-Light,Helvetica" font-size="75.2" fill="#00872A" transform="matrix(1.00, 0.00, -0.00, -1.00, 595.6, 620.3)">p</text><text xml:space="preserve" font-family="Helvetica-Light,Helvetica" font-size="75.2" fill="#00872A" transform="matrix(1.00, 0.00, -0.00, -1.00, 641.5, 620.3)">e</text><text xml:space="preserve" font-family="Helvetica-Light,Helvetica" font-size="75.2" fill="#00872A" transform="matrix(1.00, 0.00, -0.00, -1.00, 683.3, 620.3)">z</text><text xml:space="preserve" font-family="Helvetica-Light,Helvetica" font-size="75.2" fill="#00872A" transform="matrix(1.00, 0.00, -0.00, -1.00, 720.9, 620.3)">a</text><text xml:space="preserve" font-family="Helvetica-Light,Helvetica" font-size="75.2" fill="#00872A" transform="matrix(1.00, 0.00, -0.00, -1.00, 762.8, 620.3)">m</text><text xml:space="preserve" font-family="Helvetica-Light,Helvetica" font-size="75.2" fill="#00872A" transform="matrix(1.00, 0.00, -0.00, -1.00, 825.4, 620.3)">o</text><text xml:space="preserve" font-family="Helvetica-Light,Helvetica" font-size="75.2" fill="#00872A" transform="matrix(1.00, 0.00, -0.00, -1.00, 867.2, 620.3)">s</text><text xml:space="preserve" font-family="Helvetica-Light,Helvetica" font-size="75.2" fill="#00872A" transform="matrix(1.00, 0.00, -0.00, -1.00, 904.8, 620.3)">?</text><image xlink:href="A76ADFC0FCB4788C846539C37FDC3304.png" width="240.00" height="103.00" transform="matrix(1.65, 0.00, -0.00, -1.65, 274.2, 601.4)"></image><text xml:space="preserve" font-family="Helvetica-Light,Helvetica" font-size="36.0" fill="#000000" transform="matrix(1.00, 0.00, -0.00, -1.00, 427.7, 269.4)">S</text><text xml:space="preserve" font-family="Helvetica-Light,Helvetica" font-size="36.0" fill="#000000" transform="matrix(1.00, 0.00, -0.00, -1.00, 449.7, 269.4)">h</text><text xml:space="preserve" font-family="Helvetica-Light,Helvetica" font-size="36.0" fill="#000000" transform="matrix(1.00, 0.00, -0.00, -1.00, 469.7, 269.4)">u</text><text xml:space="preserve" font-family="Helvetica-Light,Helvetica" font-size="36.0" fill="#000000" transform="matrix(1.00, 0.00, -0.00, -1.00, 489.7, 269.4)">h</text><text xml:space="preserve" font-family="Helvetica-Light,Helvetica" font-size="36.0" fill="#000000" transform="matrix(1.00, 0.00, -0.00, -1.00, 509.7, 269.4)">a</text><text xml:space="preserve" font-family="Helvetica-Light,Helvetica" font-size="36.0" fill="#000000" transform="matrix(1.00, 0.00, -0.00, -1.00, 529.7, 269.4)">r</text><text xml:space="preserve" font-family="Helvetica-Light,Helvetica" font-size="36.0" fill="#000000" transform="matrix(1.00, 0.00, -0.00, -1.00, 541.7, 269.4)">i</text></g></svg>